<svg xmlns="http://www.w3.org/2000/svg" viewBox="0 0 32 32"><g fill="none" fill-rule="evenodd"><path fill="#66BF3B" d="M21.95 2.35c4.96 0 9.93 6.2 9.93 13.65 0 8.93-6.95 13.14-9.68 14.39 2.98-3.23 3.23-4.97 3.23-7.7 0-2.72-1.5-5.7-5.21-8.18-3.72-2.48-4.34-4.5-4.34-6.22 0-2.46 1.6-5.94 6.07-5.94"/><path fill="#4076BE" d="M9.92 29.64C4.96 29.64 0 23.44 0 16.01 0 7.07 6.95 2.85 9.67 1.61 6.7 4.83 6.45 6.57 6.45 9.3c0 2.73 1.49 5.7 5.2 8.19 3.73 2.48 4.35 4.5 4.35 6.22 0 2.46-1.61 5.93-6.08 5.93"/></g></svg>